<?xml version="1.0" encoding="iso-8859-1"?>
<!-- Generator: Adobe Illustrator 22.0.1, SVG Export Plug-In . SVG Version: 6.00 Build 0)  -->
<svg xmlns="http://www.w3.org/2000/svg" xmlns:xlink="http://www.w3.org/1999/xlink" version="1.1" id="Layer_1" x="0px" y="0px" viewBox="0 0 64 64" style="enable-background:new 0 0 64 64;" xml:space="preserve" width="512px" height="512px">
<linearGradient id="SVGID_1__69442" gradientUnits="userSpaceOnUse" x1="32.0001" y1="6.9993" x2="32.0001" y2="58.1" spreadMethod="reflect">
	<stop offset="0" style="stop-color:#1A6DFF"/>
	<stop offset="1" style="stop-color:#C822FF"/>
</linearGradient>
<path style="fill:url(#SVGID_1__69442);" d="M49.16,25.62l8.52-7.89c0.23-0.21,0.34-0.51,0.32-0.82c-0.03-0.31-0.2-0.59-0.46-0.75  l-14.21-9c-0.35-0.23-0.8-0.21-1.13,0.04l-10.19,7.64l-9.8-7.63c-0.33-0.26-0.79-0.28-1.15-0.05l-14.6,9.4  C6.19,16.73,6.02,17.02,6,17.33c-0.02,0.32,0.11,0.62,0.35,0.83L15.47,26l-9.12,7.84C6.1,34.05,5.98,34.37,6,34.69  c0.03,0.32,0.21,0.61,0.49,0.77L15,40.47v6.73c0,0.35,0.18,0.67,0.47,0.85L24,53.33L29.93,57l1.54,0.95  c0.17,0.1,0.35,0.15,0.53,0.15s0.36-0.05,0.52-0.15l16-9.8c0.3-0.18,0.48-0.5,0.48-0.85v-6.76l8.51-5.08  c0.27-0.16,0.45-0.44,0.48-0.75c0.04-0.3-0.07-0.61-0.29-0.83L49.16,25.62z M42.85,9.21l12.52,7.94l-7.8,7.2l-13.78-8.34L42.85,9.21  z M32.02,17.28l13.81,8.35L32,34.7L18.82,26L32.02,17.28z M8.67,17.52l12.88-8.3l8.74,6.81l-13.21,8.72L8.67,17.52z M8.71,34.45  l8.37-7.2l13.14,8.68L30.12,36L24,40.29l-2.45,1.72L8.71,34.45z M47,46.74l-15,9.19l-8-4.95l-7-4.34v-4.99l4.09,2.41  c0.16,0.09,0.33,0.14,0.51,0.14c0.2,0,0.4-0.06,0.57-0.18L24,42.74l8-5.61l0.01-0.01l10.02,6.9c0.17,0.12,0.37,0.18,0.57,0.18  c0.18,0,0.35-0.05,0.51-0.14L47,41.74V46.74z M42.64,42.01l-8.85-6.09l13.79-9.04l7.79,7.53L42.64,42.01z"/>
<linearGradient id="SVGID_2__69442" gradientUnits="userSpaceOnUse" x1="39.5" y1="37.12" x2="39.5" y2="55.93" spreadMethod="reflect">
	<stop offset="0" style="stop-color:#6DC7FF"/>
	<stop offset="1" style="stop-color:#E6ABFF"/>
</linearGradient>
<path style="fill:url(#SVGID_2__69442);" d="M47,41.74v5l-15,9.19v-18.8l0.01-0.01l10.02,6.9c0.17,0.12,0.37,0.18,0.57,0.18  c0.18,0,0.35-0.05,0.51-0.14L47,41.74z"/>
</svg>
